<?xml version="1.0" encoding="UTF-8"?>
<svg id="layer_1" data-name="layer_1" xmlns="http://www.w3.org/2000/svg" version="1.1" viewBox="0 0 256.68 256.63">
    <defs>
        <style>
            .st0 {
            stroke: #649bdc;
            }

            .st0, .st1, .st2, .st3, .st4, .st5, .st6, .st7, .st8 {
            fill: none;
            stroke-linecap: round;
            stroke-linejoin: round;
            }

            .st0, .st2, .st3, .st4, .st5, .st6, .st7, .st8 {
            stroke-width: 6.53px;
            }

            .st1 {
            stroke: #749bd9;
            stroke-width: 6.96px;
            }

            .st2 {
            stroke: #34aae2;
            }

            .st9 {
            fill: #8e87d2;
            }

            .st3 {
            stroke: #a381c7;
            }

            .st4 {
            stroke: #a481c8;
            }

            .st5 {
            stroke: #48c5ec;
            }

            .st6 {
            stroke: #b77dc1;
            }

            .st7 {
            stroke: #3abfea;
            }

            .st8 {
            stroke: #6c92d8;
            }
        </style>
    </defs>
    <g id="_gen_obj">
        <g>
            <path class="st1"
                  d="M122.74,51.96c100.16-7.71,111.77,147.89,8.71,152.62-98.27,4.51-107.87-144.99-8.71-152.62Z"/>
            <path class="st9"
                  d="M101.63,86.78c9.94-1.35,20.23,2.18,26.12,10.45,2.74-2.1,4.78-5.19,7.84-6.96,11.59-6.72,27.7-3.95,35.91,6.75,15.79,20.58-4.54,43.68-19.37,57.68-2.74,2.59-20.91,17.9-23.07,18.28-2.97.52-12.86-7.73-15.67-10.01-13.79-11.21-35.93-32.83-34.17-52.02,1.04-11.36,10.96-22.61,22.42-24.16Z"/>
        </g>
        <g>
            <path class="st2" d="M16.09,119c3.49-19.06,9.16-36.41,19.77-52.84"/>
            <path class="st2" d="M15.66,137.71c2.73,4.27,2.49,10.19,3.74,15.24,3.34,13.41,8.9,26.27,17.04,37.51"/>
            <path class="st2" d="M21.38,128.28c0-12.01-18.42-11.86-18.11.23s18.11,11.48,18.11-.23Z"/>
            <path class="st8"
                  d="M50.09,51.07c-16.23,10.54-20.94-18.3-4.63-15.83,12.22,1.85,5.28,13.58,6.44,16.72.85,2.3,9.49,8.65,11.26,11.37"/>
            <path class="st8" d="M132.32,38.9c-39.42-2.1-76.87,24.8-89.18,62.09"/>
            <path class="st7" d="M38.64,123.35c-1.25,39.76,23.21,76.83,61.32,89.6"/>
            <path class="st7"
                  d="M63.16,193.38c-2.67,1.73-9.04,10.34-11.27,11.16-3.17,1.16-15.04-5.77-16.72,6.55-2.2,16.19,26.22,11.28,15.82-4.72"/>
            <path class="st3" d="M253.42,128.24c0-11.78-17.9-12.08-18.2-.23-.31,12.15,18.2,12.31,18.2.23Z"/>
            <path class="st4" d="M137.54,16.26c18.88,3.62,36.99,8.74,52.76,20.34"/>
            <path class="st4" d="M118.83,15.83c-5.42,2.8-12.24,2.83-18.28,4.53-12.26,3.44-23.97,9.03-34.48,16.24"/>
            <path class="st4" d="M137.47,12.33c0-12.05-18.39-12.12-18.39,0s18.39,12.05,18.39,0Z"/>
            <path class="st5" d="M137.54,240.45c18.79-3.68,37.84-8.54,53.14-20.86"/>
            <path class="st5" d="M118.83,240.45c-18.29-3.69-36.72-8.34-51.86-19.94"/>
            <path class="st5" d="M137.52,244.28c0-12.22-18.74-12.06-18.42.23s18.42,11.68,18.42-.23Z"/>
            <path class="st0"
                  d="M192.9,193.07c2.88,1.96,7.24,8.51,9.94,9.85,4.87,2.41,13.49-3.16,17.68,5.43,8.09,16.61-26.58,17.86-14.74-2.73"/>
            <path class="st0" d="M212.73,156.56c-12.25,37.55-49.18,62.25-88.24,61.36"/>
            <path class="st6"
                  d="M205.54,50.2c-10.52-15.93,17.86-21.22,15.94-4.94-1.49,12.61-13.6,5.59-16.65,6.59-2.12.7-9.28,10.08-11.92,11.79"/>
            <path class="st6" d="M156.12,43.03c12.7,8.03,26.48,13.3,36.94,24.38,16.41,17.38,25.99,41.56,24.03,65.51"/>
            <path class="st3" d="M240.28,119c-3.71-18.26-8.16-36.81-19.95-51.85"/>
            <path class="st3" d="M240.28,137.28c-3.25,19.19-8.79,36.94-19.82,53.25"/>
        </g>
    </g>
</svg>